<?xml version="1.0" encoding="utf-8"?>
<!-- Generator: Adobe Illustrator 19.0.0, SVG Export Plug-In . SVG Version: 6.00 Build 0)  -->
<svg xmlns="http://www.w3.org/2000/svg" xmlns:xlink="http://www.w3.org/1999/xlink" version="1.1" id="Layer_1" x="0px" y="0px" viewBox="0 0 1096 780" style="enable-background:new 0 0 1096 780;" xml:space="preserve">
<style type="text/css">
	.st0{fill:#C27DB5;}
	.st1{fill:#231F20;}
	.st2{fill:none;stroke:#231F20;stroke-width:0;stroke-linecap:round;stroke-linejoin:round;}
</style>
<g>
	<g>
		
	</g>
</g>
<g>
	<path class="st1" d="M507,416.4C507,416.4,507,416.4,507,416.4C507,416.4,508.1,415.8,507,416.4z"/>
	<path class="st1" d="M442.5,530.7C442.5,530.8,442.5,530.8,442.5,530.7L442.5,530.7z"/>
	<path class="st1" d="M384.4,316.7c0.4-1.1,0.7-1.7,0.7-1.7S382.9,319,384.4,316.7z"/>
	<path class="st1" d="M513.7,399.6c0,0-2.6-10.8-4-13.6c0,0-2-8.8-9.6-23.1c0,0-6.7-18.4-12-28.2c0,0-9.3-46.9-14.8-57.7   c0,0-3.8-7.7-15.8-6.9c0,0-11.4-2.5-12.8-7.2l-0.5-13c0,0,3.7-5.4,3.6-9.8c0,0,1.3-2.4,2-2.3c0,0,0.2-8.9,1.6-9.6c0,0,0-0.7-1.3,0   c0,0,2.5-14.8-5.5-22c0,0-1.9-2.3-4.8-4c0-0.4-0.1-0.9,0-1.3c0.4-3.9-3.2-11.5-10.1-8.6c0,0-3.4,5.7-4.4,11.7c-1.5,1.2-3,2.8-4.2,5   c0,0-4.5,5.1-4.8,8.4c0,0-1.8,7.9,0,10.5c0,0-1.9,0-1.3,1.9c0,0,1.7,7.7,4.7,8.7c0,0,0.5,4.4,2,7.7c0,0,1.7,13-0.5,17.1   c0,0-1,5.1-13.4,9c0,0-9.8,0.1-13.4,6.6c0,0-5.9,9.9-6,22.7c0,0-0.5,9.7-3.2,14.1c-0.3,0.5-0.5,0.8-0.7,1.1   c-1.2,2.9-3.4,8.9-3.8,13.1l-5.6,12.1c0,0-20.9,32.4-22.9,41.3c0,0-1.9,12.4-5.7,17.1c0,0-5.4,12.8-3.4,21.2c0,0,1.1,1,1.2,0   c0,0,1.1,0.3,1.6,1.2c0,0,1.8,0.2,1.9-1l0.5-1l1.5,1.1c0,0,1.7-0.4,1.5-1.1c0,0,0-1.3-0.5-2.1c0,0-3.1-6.1-1.4-9.2   c0,0,2.2,7.1,3.4,7.5c0,0,1.7,0,1.3-1.3c0,0-1.7-3.3-1.3-4.8c0,0,2-5.4,0.8-8.1c0,0,0.7-7.8,10.1-17.5c0,0,20.1-22.4,24.8-32.3   c0,0,16-37,14.2-43.1c0,0,8.6,9,4.1,33.4c0,0-5,3.9-3.6,10.9l-1.3,8.6c0,0-13.3,22.4-3.2,72c0,0,5,26.6-0.7,49.2   c0,0,0.7,36.3,3.2,41.6c0,0-4.7,7.5-1.1,17.6c0,0-1.4,16.5-4.3,22.3c0,0-2.2,16.9,7.5,17.6c0,0,12.6-5.4,10.8-17.6l0.7-20.5l1.8-23   c0,0,3.9-22.3,3.2-35.5c0,0,4.7-21.2,2.5-33.4c0,0,4.7-19,3.9-34.1c0,0,3.7-13.3,7.8-14.4c0,0,8,9.7,7.7,30.5c0,0-0.7,37,5.4,67.9   c0,0,2.9,15.2-1.4,23.2c-0.2,0.4-0.5,0.9-0.8,1.2c-1.5,2-2.1,2.9-2.3,3.2c0.4-0.5,2.6-3.6,2.6-3.6s0.2,8.2,2.1,12.5   c0.2,0.4,0.4,0.9,0.7,1.2c2.6,3.6-6.9,26.9,0,37c0,0,7.7,12.2,15.9-1.8c0,0-1.1-20.8,0-31.2c0,0,3.6-12.9,5-24.4   c0,0,1.4-30.9-2.5-46c0,0,3.2-47.4,5-63.5c0,0,3.9-37-6.5-43.8c0,0-0.4-16.9-2.5-25.5c0,0,2.9-26.3,1.7-31.4   c0,0,7.7,40.4,34.9,77.5c0,0,3.8,0,4.8,5.3c0,0,1.4,8.1,2.6,11.2c0,0,0.9,7.8-1.4,11.4c0,0-0.1,1.9,1.6,0.9   c0.2-0.1,0.3-0.2,0.4-0.2c0.2-0.5,1.7-5.2,1.9-6.2c0,0,2.6,0.5-1.3,9.9c0,0,0.5,2.2,2.1,0.9l1,1.6c0,0,0.8,0.4,1.6-0.6l1.1-1.4   c0,0,1.3,0.4,1.5,0.7c0.2,0.3,1.9-0.4,1.7-1.2C516.7,420,518.2,407.8,513.7,399.6z"/>
</g>
<path class="st1" d="M312.5,455.3c-3.5-7.1-7.5-69.3-7.5-69.3s-3-46.3-11.2-60.7c0,0,2.1-19.2,0.9-26.3c0,0,5-20.4,0-28.6  c0,0-2.1-6.2-12.1-8.3c0,0,13.3,1.2,11.8-4.7c0,0-4.1-4.1-2.4-6.5c1.8-2.4,4.1-4.4,2.7-7.7c-1.5-3.2,0.6-10.6-3-10.9  c-3.5-0.3,0.3-7.5-1.9-10c-2.2-2.5,5.6-6.1,1.5-10c-4.1-4,2.5-4.7-0.3-8.7c-2.8-4,2.3-4.3-0.5-6.4c0,0-45.7-20.1-58.3,15.4  c0,0-7-4.6-10.7,2.8c0,0-2.5,4.9,2.1,9.2c0,0-14.6,3.7-11.2,9.7c3.4,6.1-0.5,0.7-0.5,0.7s3.3,5.9,5.9,4c-1.6,1.4-8,7.7-4.4,11.9  c0,0,4.1,1.2,6.8,0c0,0-6.3,9,3.4,9c0,0,0.1,2.8-3.4,4.3c0,0-13.4,4-14,16.2c0,0-2.5,24.1,0,32.9c0,0,2.1,24.8,2.4,28.2  c0,0-1.2,15.1,1.2,19.3l6.9,36.9c0,0-2.4,12.4-1,17.5c0.1,0.3,0.2,0.5,0.2,0.7c1.9,4.4-1.2,4.7-2.2,6.1c0,0,1.6,2.2,2.8,1.3  c1.2-0.9,2.5-3.4,2.5-3.4s1.3,6.1,0.3,7.5c0,0,0.9,2.2,1.9,1.3l1.6-2.8l0.5,43.3c0,0,0.4,3.2,6.1,2.2c5.7-1,1.2,0.2,1.2,0.2  s7.5-0.6,8.9,1c0,0,11.4-0.6,13.3-3c0.4-0.5,1.2-1,2.2-1.4c1.4,7,2.7,15.9,0.9,19.1c0,0-3,17.7-3.1,47.6c0,0-4,13.8-6.2,15.6  c0,0-0.6,2.2,0,4.3c0,0-3.3-0.4-2.2,11.2c0,0-2,7.9-3.9,10.8c0,0-2,7.9,13.4,6.1c0,0,11.2,1.6,8.9-7.3c0,0-2.8-13-1-17.9  c0,0,1.8-3.3,0.2-9.5c0,0,8.9-28.2,9.8-35c0,0,5.3,19.3,13.4,31.5c0,0-2.4,5.9,1.2,13.4c0,0-0.6,8.3-4.5,13.4c0,0-6.7,6.1,0.2,8.7  c0,0,17.1,4.3,19.1-1.2c0,0-0.8-3.7-1.8-6.1c0,0,3.3-9.8,1.8-15.8c0,0,1.6-2.6-1.6-4.9c0,0,1.4-4.7-2-7.5c0,0-5.9-10.8-5.3-19.5  c0,0-1.6-28.5-5.9-38.2c0,0-1.8-13.3-1.2-20.8c2.8-1.1,8.6-1.3,13,1c5.7,3,9.3-1.2,9.6-3.9C308.1,460.5,316,462.4,312.5,455.3z"/>
<path class="st1" d="M94.8,191.5c0,0-23.2,1.9-22.3,29.3c0,0,3,1.8,4.5-1.5c0,0-4.1,8.6-2,13.5c0,0-9,11.2-5.8,19.2c0,0,2,18,0,20.9  c-2,3,0,2,0,2s-6.2,4.6-5.8,9.8c0,0,0.6,7.9,3.1,11.2c0,0,11.1,15.5,15.3,28.1l2.2,1.8c0,0-2.2,7.9,0.3,9.8c2.5,2,0.4,0,0.4,0  S71.3,347,69.8,353c-0.1,0.4-0.1,0.8-0.1,1.1c0.3,5.6-6.9,10.4-1.1,13.3c0,0-8.7,22.8-4.5,29.9l-0.1,5.6l-1,2l2.1,2.8  c0,0,4.5,26.9,10,39.3c0,0-3.2,11.2-1.3,16.2l-0.8,26.6l-3.4,13.5l-6.6,10.7l-1.2,11.6l-5.9,10.7v7.8l-7.6,7l-4,9.2l-2.3,12.9  c0,0-7.4,4.8-5.3,8.9c2.1,4,9.1,5.3,12,4c0,0,3.8-2.6,3.8-6.3c0-1.3,0,3.7,0,3.7l3.8,0.5l1.1-6.5l6.3-13.7L75,550.8l4-10.5l2.3-6.1  l5.3,8.9l3.2,6.7c0,0-1.5,2.9-1.5,3.6c0,0.6,3,7.1,2.3,7.1c-0.6,0,2,6.2,1.8,12.8c0,0.3,0,0.7-0.1,1c-0.6,7,0,8,0,8.6  c0,0.6-3.6,1.6-1.9,3.8c0,0,13.1,4.3,13.7,0c0,0-0.2-6.8,0-7.6c0.2-0.8,3.4,4.2,3.4,4.2s0.4-8,0-9.5c-0.4-1.5,0.2-20,0.2-20  l-2.9-21.5l-2.3-12.4l0.8-12.4l-3.8-11.6l8.2-24l-3.3-3.8c0,0,23.6-33.9,26.8-47c0,0,7.6-4.4,7.4-12.4c0,0,2.1-5.9,2.7-12.9  c0,0,1.7-10.1,4.6-12.4c0,0,3.4-9.3,0-22.1l-0.2-16.4l1.7-17.7l1-13.1c0,0,1.9,15.6,4.4,20c0,0-0.2,16.6,2.3,22.3  c0,0,2.1,22.1,0,29.1c0,0-3,10.3,0.9,17.1v3.2c0,0,2.2,0,2.6-1.9c0.4-1.9,2.5-3.8,2.5-3.8s-0.2,8.6-3,12.9c0,0-0.4,4,1.9,3.4  c0,0,12.2-12.6,12-19.8c0,0-0.4-6.5-1.7-7.8c0,0,1.7-9.7,0.2-12.6c0,0-4.6-10.5-4-17.7c0,0,0.2-37.5-3.6-43c0,0-6.3-27.6-6.3-33.9  c0,0,0-31.4-17.9-31c0,0,1.7-4-1.3-7.6c-3-3.6,0,0.8-3.8,2.5c-3.8,1.7-6.1,0.6-5.7-4.2c0.4-4.8,2.1-4.2-1.5-6.3  c-3.6-2.1,2.1-5.3,4.4-6.7c2.3-1.5,0-3.8-4.2-5.1c-4.2-1.3-8-6.1-8-6.1l1.3-5.1c0,0-0.2,2.3,1.5,3.2c1.7,0.8,7.2-2.1,4.2-6.3  C125.8,208.6,122.8,189.8,94.8,191.5z"/>
<path class="st2" d="M131.9,569.4c0,0,0.3,0,1,0"/>
<path class="st1" d="M668.6,400.3c-4.2-5.3,6.7-38.4-1.5-61.7c0,0-2.9-25.1-2.6-31.5c0,0,0.3-44.6-13.4-44c0,0-5.5-2-7.9-2  c-2.3,0-4.8-3.2-4.8-3.2s1.6-70.6-28.7-66.2c0,0-18.4-2.9-21.6,23.6c0,0-12.5,33-6.4,46.1c0,0-1.8,10.2-6.4,10.2c-0.5,0-0.8,0-1.2,0  c0,0-3.8,11.4,0.6,16.3c0,0-0.6,40.5,1.8,49.3c0,0-2.6,14.9-1.2,28.3c0,0,4.4,35,1.8,46.4c0,0-2.9,16.9,7.6,25c0,0,3.2,31-3.2,44.4  c0,0-5.5,36.8-6.7,52.2c0,0,0.3,10.5,0.9,14c0,0-1.3,20.4-3,23c0,0-3.1,12.2,7.1,14.9c0,0,11.4-1.8,8.5-19.5c0,0-0.6-12,1.2-14.3  c0,0,2.9-8.5-0.6-12.2l2.2-7.6l3.3-6.1l0.6-6.7c0,0,2-23.3,8.2-43.5c0,0,5.5-10.5,4.4-18.4c0,0,9.6-47,15.2-60.1  c0,0,4.1-2.9,3.8,0.6c0,0,8.5,33.8,6.1,55.1c0,0-1.2,5.8,0.4,15.8c0,0,0.5,41.1-2.4,56.3c0,0-2.9,6.9-0.7,11.7c0,0,2.4,18.8,0,23.4  c0,0-1.5,12.5,6.8,16c0,0,10.3-3.7,8.8-17.9c0,0-2.1-19.9,0.2-26.5c0,0,10.3-53.2,8.4-69.4c0,0,1.3-29.1,1.8-35.2c0,0,5.9,2,8.3-2.4  c0,0,3.5-0.9,3.5-2.4c0-1.5,2.4,0,2.4-2c0-2,1.1,4.2,1.5-2.2C671.7,411.5,672.8,405.6,668.6,400.3z M590.8,374.5  c-0.9,5.3-4,30.9-4,30.9c-5.1-3.8-2.2-20.7-2.2-20.7c2.3-8.5,2.9-40.3,2.9-40.3c-1.8-11.1,1.5-33.5,1.5-33.5  c1.4,9.1,2.6,1.5,4.2,28.6C592.6,351.7,590.8,374.5,590.8,374.5z M652.9,337.1c-12.5-12-6.1-39.7-6.1-39.7  C654.4,312.6,652.9,337.1,652.9,337.1z"/>
<path class="st1" d="M800.2,192c0,0-19.7-4.8-20.8,18.6l-0.6,4.5c0,0-1.2-1.3-1.5,1.1c-0.3,2.4,0,0.6,0,0.6s-1.2,6-0.1,9.5  c0,0-0.3,2.8,1.8,3.7c0,0-0.4,8.3-0.8,9.2c-0.5,0.9-2.2,3.9-1.8,4.9c0.5,1-2.5-0.9-2.6,6.5c0,0-1.3,2.8-7.4,2.5  c0,0-18.9,1.2-19.2,2.6c-0.3,1.4,0,0.3,0,0.3s0.9,4.9-1.5,5.3c0,0,0.8,4.6-0.4,6.4c-0.1,0.1-0.2,0.2-0.3,0.3  c-1.6,1.5,0.1,4.3-1.1,5.4c0,0-1.6,17.8,11.2,29.3l6.6,22.1c0,0-1.3,2.6-0.6,4.9c0,0-2.7,23.8-1.6,33.4l1,1.1c0,0-0.4,11.3-3.8,18.7  c0,0-4,8.5-3.1,10.4c0,0-6.2,31-6.8,45.7c0,0,0.7,7.3-3.1,18.1c0,0-15,33.2-18.3,54.9l-5.9,24c0,0-4.7,12-4.7,16.2l-9.5,16.7  c0,0-9.2,11.7,0,15.1c0,0,15.1,5.3,16.2-7.3c1.1-12.6,8.4-17.3,8.4-17.3s4.7-6.7-0.3-10.6c-5-3.9,0-1.4,0-1.4s10.9-31.2,16.7-38.2  c0,0,12.6-34.9,15.6-38.5c3.1-3.6,7.8-12.8,8.6-18.4c0,0,20.9-61.1,25.4-64c0,0,6.4-6,5.9,0c0,0-2,20.8,3.3,34.8  c0,0,0.8,29.6,3.6,42.7c0,0-4.2,24.3,2.8,46c0,0,5.6,28.7,0,38.2c0,0-2.8,6.7-0.6,14.2c0,0,0.6,10-1.7,13.9c0,0-1.7,10,7.3,8.4  c0,0,15.6,3.6,13.9-8.6c0,0,2-7.8-4.5-20.6c0,0,3.3-4.7,0-12.6l2-31c0,0,5.9-25.9,1.1-48.5c0,0-3.3-23.2,0.6-34  c0,0,5.6-28.8,4.2-41.9h2.2c0,0,0.6-15-2.8-24.2l2.8,0.6l1.4-0.8c0,0-8.1-34-18.7-45.2l1.7-8.6c0,0,11.2-1.1,15.3-8.1  c0,0,6.7-13.4,3.9-18.1l-7.3-12c0,0,4.7-6.4,0-8.4l-16.5-5.3l-3.9-5.6c0,0-3.1-6.8-2.6-8.8c0,0,2.6-9.3,2-11.9c0,0,1.1-1.4,1.3-2.6  l0.6-8.5c0,0,0.4-2.9-0.7-2.2C812.7,219.5,819.5,196.6,800.2,192z"/>
<path class="st1" d="M1058.3,306.8c0,0-14.5-22.9-21.6-30.9c0,0-6.5-11.1-13.2-16.8l-7.8-13.2l6.3,5.2l-3.6-6.5  c0,0,16.4,11.8,26,15.3c0,0-19.3-13-21.6-19.7l19.9,4.6c0,0-19.5-5.9-22.9-12.6c0,0,2.6,0,5.8-0.1c4.8-0.2,11.3-0.9,13.3-2.6  c0,0-31.3,0.2-33.6-10.7c0,0-7.1-28.1-24.3-27.3c0,0-14-1.7-22.4,14.6c0,0-4.7,9.8-3.9,15c0,0-10.4,13.5-10.9,17.9  c0,0,3-3.1,6.8-4.7c0,0,0.2,13.1-5,20.1l1.6,1.9c0,0-12.6,4.1-29.8,26c0,0-21.6,21.1-22.4,29.1c0,0,3.5,11.6,32.6,34.5  c0,0,9.3,6.6,12.6,4.1c0,0-18.2,34.2,2.4,72.4c0,0,10.5,27.3,12.2,39c0,0-0.4,22.2,1.7,28.5c0,0,4.4,15.5,5.9,18.5  c0,0,3.8,20.8-0.2,26.7c0,0-4.6,9.9-4.4,13.2c0,0,1,10.7-1.3,15.1c0,0-9.4,21,2.7,20.8c0,0,11.5-5.5,13.2-10.5  c0,0,1.3-21.8,3.4-24.1c0,0,2.5,11.8-0.6,20.4c0,0-2.5,11.1,3.1,13.2c0,0,18.9,5.2,13.9-9.7c0,0-3.1-11.8,0.9-17c0,0,1.7-5.7-4.6-12  c0,0-4.6-10.3-4-15.7c0,0-0.2-15.7-2.3-18.1c0,0,7.8-16.2,5.9-33.6c0,0-5.7-12.6,2.9-27.9c0,0,35.2-68.2,19.1-90.9  c0,0,5.9,0.6,7.8-1.6c0,0,29.4-24.2,36.7-37.7C1054.6,319.2,1063,313.1,1058.3,306.8z M947.7,327.8c-8.6,14.3-12,10.7-12,10.7  c-12-6.5-21.2-27.5-21.2-27.5c6.7-9.2,28.3-22.2,28.3-22.2C949.6,307.7,947.7,327.8,947.7,327.8z M1016.8,343.5  c-4.4,5.5-10.3-3.4-10.3-3.4c-3.4-5.7,2.9-31.1,2.9-31.1c4.4-3.6,4.8-14.7,4.8-14.7c3.6-2.7,4.8-7.3,4.8-7.3l20.4,22.9  C1033.6,326.1,1016.8,343.5,1016.8,343.5z"/>
</svg>
